<?xml version="1.0" encoding="utf-8"?>
<!-- Generator: Adobe Illustrator 17.1.0, SVG Export Plug-In . SVG Version: 6.00 Build 0)  -->
<!DOCTYPE svg PUBLIC "-//W3C//DTD SVG 1.1//EN" "http://www.w3.org/Graphics/SVG/1.1/DTD/svg11.dtd">
<svg version="1.1" id="Layer_1" xmlns="http://www.w3.org/2000/svg" xmlns:xlink="http://www.w3.org/1999/xlink" x="0px" y="0px"
	 viewBox="0 0 729.4 420.1" enable-background="new 0 0 729.4 420.1" xml:space="preserve">
<g>
	<g opacity="0.8">
		<path fill="#3B3835" d="M661.6,16.6C661.6,7.4,654.1,0,645,0H84.5c-9.2,0-16.6,7.4-16.6,16.6v379.5h593.7V16.6z M362.9,7.4
			c2,0,3.7,1.7,3.7,3.7c0,2-1.7,3.7-3.7,3.7c-2,0-3.7-1.7-3.7-3.7C359.2,9,360.8,7.4,362.9,7.4z M638,386.4H91.4V23.5H638V386.4z"/>
		<path fill="#3B3835" d="M670.2,398L670.2,398l-3.7-0.1v0.1H410.2c0,0-1.8,6.5-13.9,6.5h-30.9H364h-30.9c-12,0-13.9-6.5-13.9-6.5
			H72.8H0v13.9c0,0,5.5,8.3,37.9,8.3H337h19.4H373h57.2h261.3c32.3,0,37.9-8.3,37.9-8.3V398H670.2z"/>
	</g>
</g>
</svg>
